<?xml version="1.0" standalone="no"?>
<!DOCTYPE svg PUBLIC "-//W3C//DTD SVG 20010904//EN"
 "http://www.w3.org/TR/2001/REC-SVG-20010904/DTD/svg10.dtd">
<svg version="1.0" xmlns="http://www.w3.org/2000/svg"
 width="51.000000pt" height="50.000000pt" viewBox="0 0 51.000000 50.000000"
 preserveAspectRatio="xMidYMid meet">
<metadata>
Created by potrace 1.10, written by Peter Selinger 2001-2011
</metadata>
<g transform="translate(0.000000,50.000000) scale(0.100000,-0.100000)"
fill="#ffc107" stroke="none">
<path d="M49 451 l-29 -29 0 -172 0 -172 29 -29 29 -29 177 0 177 0 29 30 30
30 -3 176 -3 176 -28 24 c-27 23 -33 24 -203 24 l-176 0 -29 -29z m376 -7 c35
-16 50 -45 43 -81 -2 -14 -14 -19 -57 -21 -53 -3 -72 -13 -84 -42 -4 -10 -6
-8 -6 6 -2 36 -59 46 -100 18 -19 -14 -25 -14 -32 -3 -6 10 -29 14 -78 14
l-71 0 2 38 c1 24 9 46 24 60 20 20 32 22 173 25 125 2 157 0 186 -14z m-250
-138 c25 -18 25 -78 0 -106 -13 -15 -30 -20 -67 -20 l-48 0 0 70 0 70 48 0
c27 0 57 -6 67 -14z m134 -10 c2 -11 -4 -25 -14 -32 -10 -8 -12 -14 -6 -19 6
-3 11 -1 11 4 0 6 9 11 20 11 22 0 26 -20 8 -38 -9 -9 -8 -15 7 -26 18 -13 13
-14 -47 -15 -55 0 -69 3 -77 18 -7 13 -6 24 4 39 8 11 12 28 9 36 -10 25 15
47 50 44 21 -2 32 -9 35 -22z m149 7 c-2 -13 -11 -17 -31 -15 -19 3 -27 -1
-27 -12 0 -10 9 -16 25 -16 16 0 25 -6 25 -15 0 -10 -10 -15 -26 -15 -23 0
-26 -3 -22 -25 4 -21 1 -25 -18 -25 -23 0 -24 3 -24 70 l0 70 51 0 c43 0 50
-3 47 -17z m11 -144 c1 -64 -1 -72 -25 -95 -26 -23 -31 -24 -189 -24 -160 0
-163 0 -187 25 -20 19 -25 35 -25 71 0 32 3 42 10 35 14 -14 90 -14 121 0 20
9 29 9 40 0 9 -7 37 -12 63 -11 134 4 132 3 159 38 14 17 27 32 29 32 1 0 3
-32 4 -71z"/>
<path d="M110 250 c0 -43 13 -50 34 -17 8 12 8 22 0 34 -21 33 -34 26 -34 -17z"/>
<path d="M255 291 c-6 -11 9 -23 19 -14 9 9 7 23 -3 23 -6 0 -12 -4 -16 -9z"/>
<path d="M240 226 c0 -15 18 -31 26 -23 7 7 -7 37 -17 37 -5 0 -9 -6 -9 -14z"/>
</g>
</svg>
