<?xml version="1.0" standalone="no"?>
<!DOCTYPE svg PUBLIC "-//W3C//DTD SVG 20010904//EN"
 "http://www.w3.org/TR/2001/REC-SVG-20010904/DTD/svg10.dtd">
<svg version="1.0" xmlns="http://www.w3.org/2000/svg"
 width="450.000000pt" height="150.000000pt" viewBox="0 0 450.000000 150.000000"
 preserveAspectRatio="xMidYMid meet">
<metadata>
Created by potrace 1.10, written by Peter Selinger 2001-2011
</metadata>
<g transform="translate(0.000000,150.000000) scale(0.100000,-0.100000)"
fill="#ffc107" stroke="none">
<path d="M230 1412 c-25 -10 -66 -39 -95 -68 -85 -85 -85 -82 -85 -613 0 -385
2 -460 15 -485 8 -15 15 -35 15 -43 0 -23 94 -110 144 -132 45 -21 46 -21
2016 -21 l1971 0 47 21 c61 27 133 104 155 165 15 44 17 96 17 500 0 525 0
523 -85 608 -95 95 115 86 -2110 85 -1808 0 -1963 -2 -2005 -17z m4016 -95
c78 -43 95 -82 97 -215 1 -129 -3 -140 -47 -114 -49 29 -81 34 -210 33 -91 -1
-125 -5 -147 -18 -26 -16 -30 -16 -62 2 -45 24 -124 16 -148 -14 -22 -27 -53
-27 -103 3 -38 22 -51 24 -186 24 -112 0 -150 -3 -168 -15 -21 -13 -28 -13
-63 1 -31 13 -81 16 -245 16 l-205 0 -27 -29 c-42 -44 -77 -48 -122 -12 -74
59 -167 63 -263 10 -64 -35 -77 -36 -116 -3 -62 52 -308 58 -358 8 -30 -30
-39 -30 -99 3 -44 25 -59 28 -144 28 -81 0 -101 -4 -138 -24 l-44 -24 -38 22
c-34 19 -53 21 -205 21 -167 0 -205 -7 -205 -36 0 -8 -6 -17 -13 -20 -19 -7
-68 13 -83 34 -10 13 -32 18 -102 20 -87 4 -90 3 -120 -25 -17 -15 -38 -34
-46 -40 -8 -7 -19 -20 -24 -29 -8 -14 -13 -14 -33 -4 -13 7 -33 22 -44 32 -11
11 -38 31 -60 45 -39 25 -45 26 -186 25 l-146 -2 -7 32 c-3 17 -3 61 0 97 12
119 65 176 179 191 28 4 912 7 1965 6 l1915 -1 51 -28z m-1689 -373 c42 -26
56 -59 43 -98 -11 -33 -44 -69 -73 -79 -9 -3 -9 -10 0 -30 15 -31 53 -38 53
-9 0 29 21 42 67 42 40 0 43 -2 43 -27 0 -16 -12 -46 -25 -68 -14 -22 -25 -44
-25 -48 0 -4 19 -25 41 -46 24 -22 39 -43 35 -50 -11 -17 -118 -14 -144 5 -18
13 -26 13 -38 3 -22 -18 -153 -23 -184 -7 -35 19 -70 75 -70 113 0 31 22 62
73 102 17 14 13 46 -9 64 -16 13 -18 62 -4 88 32 61 153 85 217 45z m-2100
-12 c46 -33 69 -64 87 -116 15 -46 15 -54 0 -115 -19 -74 -50 -120 -98 -149
-26 -15 -58 -20 -165 -24 -72 -3 -134 -1 -137 4 -7 12 -5 409 3 421 3 5 62 7
144 4 117 -5 143 -9 166 -25z m441 -27 c7 -27 17 -67 22 -88 4 -21 13 -44 19
-50 6 -6 11 -22 11 -35 0 -22 22 -80 57 -148 27 -52 14 -64 -66 -64 -73 0 -84
6 -86 48 -1 29 -20 42 -65 42 -41 -1 -70 -20 -70 -47 0 -10 -5 -24 -12 -31
-15 -15 -144 -16 -153 -2 -3 6 3 22 14 36 12 15 21 33 21 41 0 8 6 27 14 41
17 34 37 89 43 122 3 14 11 39 19 57 8 17 14 40 14 50 0 11 7 34 16 52 l16 32
86 -3 86 -3 14 -50z m503 41 c2 -21 -2 -71 -8 -90 -4 -16 -12 -18 -58 -12 -38
4 -54 2 -57 -7 -3 -6 -2 -77 2 -157 4 -80 5 -148 3 -152 -2 -5 -37 -8 -78 -8
-41 0 -76 3 -78 8 -2 4 -1 72 3 152 4 80 5 151 2 158 -3 10 -15 12 -41 6 -72
-14 -75 -13 -85 37 -15 78 -22 76 198 75 130 0 196 -3 197 -10z m347 -16 c70
-51 103 -145 82 -238 -12 -56 -52 -132 -69 -132 -5 0 -17 -8 -27 -17 -24 -24
-189 -26 -218 -3 -51 41 -82 84 -96 132 -14 48 -14 59 -1 117 12 51 24 73 58
108 54 55 71 62 159 62 63 1 75 -2 112 -29z m449 -6 c34 -28 38 -36 41 -84 3
-48 0 -56 -24 -77 -15 -13 -33 -23 -41 -23 -19 0 -16 -23 8 -48 11 -12 30 -45
43 -72 13 -27 29 -56 36 -65 20 -24 -2 -35 -68 -35 -72 0 -89 11 -97 62 -9 55
-31 98 -50 98 -17 0 -17 -1 -19 -90 l-1 -65 -60 -3 c-84 -3 -91 3 -77 74 7 31
12 96 12 144 0 48 -5 113 -12 144 -9 48 -9 59 3 67 8 6 71 8 141 7 125 -3 127
-4 165 -34z m985 25 c13 -7 18 -22 18 -53 0 -47 28 -95 48 -82 7 4 12 23 12
42 0 19 7 50 14 69 15 34 16 35 73 35 97 0 96 2 13 -150 -63 -116 -70 -138
-68 -212 l3 -73 -63 -3 c-75 -4 -95 8 -81 44 19 52 9 115 -30 184 -8 15 -22
45 -58 127 -20 46 -36 51 -41 12 -5 -37 -17 -43 -85 -44 l-62 0 0 -35 0 -35
50 3 c87 5 97 -1 93 -56 l-3 -47 -62 0 c-80 0 -87 -8 -75 -76 7 -37 7 -58 0
-66 -12 -15 -114 -18 -123 -4 -4 8 -10 400 -6 422 2 10 414 8 433 -2z m465
-80 c64 -100 87 -129 104 -129 12 0 10 31 -10 145 -6 32 -7 63 -2 68 4 4 36 7
71 5 l63 -3 1 -212 c1 -236 5 -223 -70 -223 -45 0 -69 17 -98 69 -54 97 -93
151 -110 151 -17 0 -18 -5 -11 -77 5 -43 9 -91 9 -108 l1 -30 -70 0 -69 0 3
210 c2 116 5 213 8 218 2 4 30 7 63 7 l58 0 59 -91z m619 55 c67 -52 79 -79
79 -179 0 -88 -1 -92 -33 -132 -57 -72 -79 -81 -231 -84 l-134 -4 1 210 c1
116 2 214 2 218 0 4 63 5 140 3 133 -5 142 -7 176 -32z m-1199 -295 c10 -80
13 -86 69 -127 61 -45 88 -50 138 -27 34 16 80 56 90 77 5 10 7 10 12 1 10
-22 98 -80 130 -87 32 -7 78 8 119 39 19 13 26 12 85 -16 66 -31 86 -33 178
-13 21 4 53 0 88 -11 82 -26 188 -17 282 22 43 19 74 27 78 21 4 -5 6 -63 5
-129 0 -109 -3 -122 -24 -154 -24 -36 -74 -68 -132 -86 -18 -6 -786 -9 -1947
-9 -1727 0 -1922 2 -1965 16 -26 9 -58 22 -69 29 -52 33 -86 172 -64 255 11
40 11 41 48 33 72 -14 197 -6 268 17 l67 23 44 -22 c58 -28 107 -27 169 5 l51
26 51 -26 c75 -38 138 -34 191 13 31 27 40 27 87 -6 51 -36 120 -38 161 -5 15
12 43 30 61 39 17 9 32 23 32 30 0 20 6 17 69 -35 42 -36 74 -53 123 -66 64
-17 67 -17 135 3 37 11 77 27 88 35 27 21 42 19 100 -9 54 -27 109 -32 150
-13 19 9 38 8 80 -2 44 -10 69 -11 116 -2 49 9 72 8 124 -5 55 -13 83 -14 202
-4 168 14 174 14 244 6 56 -7 57 -7 102 34 24 22 52 41 62 41 12 0 15 5 11 17
-5 11 5 29 31 55 37 38 56 44 60 17z"/>
<path d="M2446 868 c-26 -37 11 -77 42 -46 18 18 14 46 -7 58 -16 8 -23 6 -35
-12z"/>
<path d="M2397 693 c-12 -11 -7 -48 9 -71 20 -29 77 -28 82 1 7 36 -68 94 -91
70z"/>
<path d="M289 848 c-1 -2 -3 -49 -4 -105 -3 -120 4 -134 57 -108 50 26 68 53
68 106 0 60 -40 109 -89 109 -17 0 -32 -1 -32 -2z"/>
<path d="M777 833 c-12 -23 -29 -105 -24 -118 7 -17 62 -21 73 -4 3 6 -2 38
-11 70 -17 55 -28 70 -38 52z"/>
<path d="M1581 821 c-25 -23 -31 -37 -31 -71 0 -47 13 -77 44 -102 30 -25 53
-22 81 8 21 22 25 37 25 86 0 49 -4 63 -25 83 -32 33 -56 31 -94 -4z"/>
<path d="M2027 854 c-13 -13 -7 -71 8 -84 12 -10 21 -10 41 -1 21 9 25 17 22
49 -3 33 -6 37 -33 40 -17 2 -34 0 -38 -4z"/>
<path d="M4079 843 c-3 -31 -4 -190 -1 -200 6 -19 64 -15 88 5 26 22 44 65 44
107 0 47 -49 95 -96 95 -19 0 -34 -3 -35 -7z"/>
</g>
</svg>
